<svg xmlns="http://www.w3.org/2000/svg" viewBox="0 0 52.16 61.46">
    <title>Kees Leemeijer Logomark</title>
    <g>
        <path d="M18.5,23.97c9.94-.87,12.45-15.95,23.11-22.78,2.99-1.92,7.08-1.36,9.21,1.49,2.39,3.21,1.49,7.7-1.84,9.76-4.18,2.58-11.25,7.98-14.79,11.49-3.53,3.52-3.53,5.16-3.53,6.8s0,3.28,3.53,6.79c3.47,3.46,10.36,8.73,14.57,11.36,3.08,1.92,4.33,5.95,2.56,9.12-1.88,3.37-6.16,4.46-9.41,2.46-10.81-6.67-13.33-21.8-23.13-22.94-.68-.08-1.19-.64-1.19-1.33v-11.23c0-.52.39-.95.91-1Z"/>
        <rect width="13.44" height="61.46" rx="3.66"/>
    </g>
</svg>