<?xml version="1.0" encoding="UTF-8"?><svg id="Laag_1" xmlns="http://www.w3.org/2000/svg" viewBox="0 0 255.76 238.85"><path d="M203.04,108.76c-7.14.68-1.74.75-9.95,1.09-9.18.43-18.5-.44-25.77-5.44-11.69-8.97-12.39-24.31-6.16-35.79,3.21-6.51,9.29-10.77,15.7-14.47,6-3.33,11.24-4.24,17.37-7.13,2.95-1.28,1.82-4.14-4.12-6.61-5.02-1.55-10.24-.6-15.23.39-12.16,2.7-23.25,10.22-30.29,20.03-6.36,9-10.46,19.51-9.7,30.44.75,22.17,20.95,31.99,41.78,31.79,6.91.08,13.6-.67,19.05-1.65,8.31-1.79,13.84-2.15,18.1-8.59l.06-.12c2.26-4.82-4.48-4.56-10.84-3.95h.02ZM122.02,145.46l.12-.05c2.9-1.2,5.1-6.08,6.39-9.31,1.19-2.88,2.51-5.74,3.97-8.45,2.12-4.17,3.76-7.69.22-6.83-7.31,2.73-14.39,10.52-15.89,17.48-.98,3.35.79,8.76,5.18,7.17h0Z"/><path d="M252.09,74.5c-.45-1.59-2.98-3.36-5.08-4.34-2.6-1.27-5.64-2.42-8.69-3.57-19.03-7.73-47.49-10.62-59.6-2.47-2.71,1.66-5,3.87-6.76,6.64-1.96,3.03-2.48,6.6,2.36,5.52,1.97-.38,4.54-1.4,7.04-2.29,9.23-3.3,19.15-5.4,29.05-5.58,1.97-.13,15.63.34,15.48,2.13-2.92,1.2-7.58,1.02-10.92,1.71-12.56,1.89-24.15,7.41-33.59,14.56-2.07,1.68-5.2,4.21-4.54,6.98,2.23,6.04,23.88,5.09,29.62,4.31l.18-.03c10.16-1.35,20.78-5.44,30.15-10.28,4.26-2.55,17.15-8.14,15.31-13.31h0ZM154.85,144.32c-2.39-1.34-5.08-1.23-7.76-1.26h-11.86c.79-.94,1.58-1.86,2.39-2.74,3.09-3.52,5.54-6.53,1.89-6.56-6.2.68-13.04,4.53-17.16,9.3h-.68c-1.81-5.44-5.32-10.74-8.95-13.98-2.14-1.79-4.66-3.97-6.48-2.19-1.6,2.41-.04,10.53,1.23,16.17h-7.16c-3.62.03-5.98-.12-8.32.78l-.11.04c-3,1.2-5.55,4.75-6.42,8.17-.89,4.01.12,7.69.57,11.81.59,4.39,1.38,10.23,2.19,16.23.83,6.17,1.68,12.5,2.37,17.62,1.29,6.65.27,12.84,5.37,17.37,5.55,4.55,13.37,2.3,20.3,2.35,7.65-.3,15.55.02,23.14.44,5.71.46,11.87-1.96,13.8-7.47.94-2.61,1.09-5.27,1.69-9.45,1.33-10.1,3.03-22.73,4.42-33.24.51-4.62,1.66-10.3,1.36-13.8-.32-3.78-2.59-7.64-5.83-9.58l.02-.02ZM64.37,78.33c4.88,3.17,11.58,5.83,10.33-2.98-3.34-18.31-9.64-36.99-23.13-49.56-.56-.6-4.08-3.81-2.11-3.56,15.46,6.98,25.51,22.94,33.72,38.67.93,1.62,2.14,4.72,3.68,5.31.27.04.48-.12.61-.36.66-1.03.55-4.6.2-7.75-.59-5.83-1.98-11.85-4.18-17.19l-.07-.17C75.06,20.26,53.35,5.76,30.42,6.51c-5.02.67-5.05,5.81-4.06,9.8,5.52,25.05,18.34,49.84,38.01,62.02h0Z"/><path d="M102.8,123.86l2.59-2.59c1.89-4.42,1.51-4.73,3.06-9.78.5-1.97,1.06-4.23,1.5-6.34,2.28-12.7,3.01-22.25,2.72-30.87-.23-6.99-.46-14.66-3.12-24.4,0,0-4.44-16.33-17.9-29.98-.88-.89-3.22-3.21-5.43-2.66-.25.06-.87.23-1.3.81-.9,1.2-.37,3.3.31,4.79,3.1,7.11,6.14,15.82,7.97,26.12,1.75,9.34,2.16,20.62,1.22,29.73-.36,3.75-.78,9.3-1.93,12.37-4.55,10.1-25.74-.66-37.25-10.08-7.24-6.21-13.74-13.09-22.73-16.83-1.03-.37-2.15-.79-3.15-.58-2.46.86,2.01,6.41,2.79,7.92,3.06,4.72,5.85,8.82,9.3,12.91,9.8,11.42,28.82,28.58,42.17,35.42,4.95,2.09,13.66,6.66,19.18,4.07h0Z"/></svg>